<svg width="106" height="109" viewBox="0 0 106 109" fill="none" xmlns="http://www.w3.org/2000/svg">
<path d="M64.4124 32.1889C67.9 35.3198 70.9154 38.9904 72.7212 43.6014C74.4568 48.0303 74.3197 52.3049 71.6751 56.3567C71.3966 56.7848 71.5736 56.963 71.8994 57.1841C77.3806 60.9202 81.2669 65.9976 83.7009 72.2605C85.9362 78.0121 86.577 83.9806 85.7578 90.1223C85.5446 91.7252 84.8374 92.4113 83.5632 92.2554C82.1671 92.085 81.1823 90.8849 81.3141 89.4774C81.3985 88.5815 81.5697 87.692 81.6267 86.7947C82.1071 79.2768 80.0679 72.5624 75.5693 66.6432C73.7114 64.1986 71.459 62.2073 68.9527 60.5015C68.5643 60.2363 68.3192 60.2721 67.9596 60.5969C62.6791 65.3614 56.7165 68.7622 49.7738 70.1482C47.2642 70.6493 44.7647 70.6149 42.3444 69.6439C39.1947 68.3808 37.6042 65.8835 37.7106 62.384C37.8103 59.1154 39.4383 56.7488 41.9557 54.957C44.9471 52.8273 48.3532 52.0137 51.9129 51.7708C57.2456 51.4074 62.3569 52.3667 67.2313 54.6024C67.7643 54.8464 68.0218 54.7403 68.3213 54.2906C69.9616 51.8293 70.5448 49.2023 69.6758 46.2853C68.6024 42.6843 66.735 39.5851 64.2064 36.8993C59.7921 32.2094 54.3987 29.0853 48.5856 26.664C37.1979 21.9182 25.3806 20.3494 13.1735 21.7538C12.6165 21.8171 12.0636 21.8979 11.6093 21.4372C11.1955 21.017 11.0283 20.5122 11.185 19.9366C11.3262 19.4167 11.7517 19.2424 12.2222 19.1989C14.7708 18.9649 17.3148 18.6405 19.8689 18.5305C29.7767 18.1038 39.4155 19.5321 48.7374 23.0743C54.2187 25.1571 60.4266 28.7268 64.4124 32.1889ZM64.3672 58.4115C64.3494 58.327 64.3315 58.2406 64.3138 58.156C64.0639 58.0545 63.8164 57.9482 63.5636 57.8545C61.4316 57.0668 59.2413 56.5342 56.9872 56.2899C53.5144 55.9139 50.09 56.1327 46.7563 57.2788C45.2321 57.8022 43.8734 58.6199 42.9548 60.0362C42.1486 61.2806 41.726 62.6202 42.4077 64.07C43.0455 65.4262 44.2734 65.9288 45.6027 66.0256C46.8233 66.1141 48.0815 66.0833 49.2896 65.8846C52.7688 65.3108 55.9191 63.7962 58.9256 61.9648C60.7732 60.8379 62.5554 59.5989 64.3672 58.4115Z" fill="#5E5E5E"/>
<path d="M86.653 100.585C86.9024 99.6515 87.1072 98.8068 87.353 97.9752C89.0656 92.1991 90.7828 86.4234 92.5122 80.6533C92.7801 79.758 93.3309 79.3488 94.13 79.3249C95.133 79.2951 95.7129 79.9047 95.5601 80.9312C95.2766 82.8427 95.0314 84.7667 94.6102 86.6483C93.2177 92.8773 91.7493 99.0886 90.3189 105.309C90.0894 106.308 89.4798 106.92 88.5708 107.236C87.9542 107.449 87.3514 107.397 86.8135 106.969C83.448 104.29 80.3141 101.342 77.6271 97.9467C75.6282 95.4209 73.8008 92.7469 71.9511 90.1002C71.2215 89.0564 71.3501 88.1126 72.1384 87.2948C72.8839 86.5211 74.1477 86.3137 75.0195 86.9059C75.378 87.1485 75.6752 87.5313 75.9146 87.907C78.7735 92.4126 82.1126 96.489 86.0356 100.05C86.2089 100.204 86.3872 100.354 86.653 100.585Z" fill="#5E5E5E"/>
</svg>
