<svg width="80" height="80" viewBox="0 0 80 80" fill="none" xmlns="http://www.w3.org/2000/svg">
<g clip-path="url(#clip0_2520_41)">
<path d="M7.93 71.9999C7.13 71.9499 6.42 71.9699 5.73 71.8699C2.22 71.3199 0.0199973 68.5999 0.0199973 64.8099C0.00999729 47.4499 0.0199973 30.0899 0.0199973 12.7299C0.0199973 10.7799 -2.71201e-06 8.81988 0.0199973 6.86988C0.0599973 2.88988 2.86 0.0198828 6.8 0.0198828C26.25 -0.000117187 45.69 -0.000117187 65.14 0.0198828C69.05 0.0198828 71.84 2.81988 71.95 6.70988C71.96 7.09988 71.95 7.48988 71.95 8.02988C72.68 8.02988 73.29 7.97988 73.9 8.03988C77.3 8.36988 79.84 11.0899 79.93 14.5399C79.98 16.3099 79.94 18.0899 79.94 19.8699C79.94 37.3599 79.94 54.8599 79.94 72.3499C79.94 77.3599 77.33 79.9499 72.29 79.9499C53.69 79.9499 35.08 79.8499 16.48 80.0199C11.53 80.0399 7.82 77.7899 7.93 71.9999ZM69.27 13.4299C46.99 13.4299 24.87 13.4299 2.68 13.4299C2.68 13.7899 2.68 14.0499 2.68 14.3099C2.68 31.1799 2.68 48.0399 2.68 64.9099C2.68 67.7099 4.33 69.2599 7.24 69.2599C26.37 69.2599 45.5 69.2599 64.63 69.2599C67.73 69.2599 69.26 67.7099 69.26 64.5799C69.26 58.6799 69.26 52.7699 69.26 46.8699C69.26 46.4999 69.26 46.1199 69.26 45.7499C69.1 45.6499 68.94 45.5499 68.78 45.4399C68.49 45.8799 68.26 46.3799 67.9 46.7499C64.12 50.5599 60.33 54.3699 56.51 58.1299C55.96 58.6699 55.26 59.1299 54.55 59.4099C50.98 60.8499 47.39 62.2499 43.77 63.5699C43.16 63.7899 42.11 63.8099 41.75 63.4499C41.39 63.0799 41.45 62.0399 41.67 61.4199C42.92 57.9599 44.22 54.5299 45.61 51.1299C46 50.1799 46.6 49.2399 47.32 48.5099C54.34 41.4199 61.42 34.3799 68.46 27.2999C68.81 26.9499 69.21 26.4399 69.22 26.0099C69.29 21.8599 69.27 17.6899 69.27 13.4299ZM10.75 71.9399C10.46 75.5699 12.01 77.2599 15.49 77.2599C34.49 77.2599 53.48 77.2599 72.48 77.2599C75.77 77.2599 77.26 75.7599 77.26 72.4599C77.26 61.3199 77.26 50.1799 77.26 39.0399C77.26 38.6199 77.26 38.1999 77.26 37.7699C77.13 37.6899 77 37.6099 76.87 37.5299C75.67 38.8099 74.54 40.1699 73.26 41.3599C72.29 42.2699 71.88 43.2099 71.9 44.5799C71.98 51.1499 71.94 57.7199 71.94 64.2899C71.94 69.3299 69.35 71.9299 64.35 71.9299C47.04 71.9299 29.73 71.9299 12.42 71.9299C11.9 71.9399 11.37 71.9399 10.75 71.9399ZM69.27 10.6199C69.27 9.50988 69.27 8.53988 69.27 7.56988C69.27 4.10988 67.82 2.67988 64.32 2.67988C45.42 2.67988 26.52 2.67988 7.63 2.67988C7.23 2.67988 6.83 2.65988 6.43 2.69988C4.6 2.83988 3.04 4.05988 2.82 5.85988C2.62 7.40988 2.78 9.00988 2.78 10.6199C24.94 10.6199 47.02 10.6199 69.27 10.6199ZM50.99 51.8899C56.25 46.6499 61.53 41.3799 66.72 36.2099C66.27 35.6799 65.75 35.0499 65.36 34.5799C59.99 39.9399 54.73 45.1899 49.37 50.5399C49.91 50.9799 50.51 51.4799 50.99 51.8899ZM54.62 55.7699C60.03 50.3699 65.32 45.0999 70.49 39.9399C70.07 39.4599 69.55 38.8799 69.09 38.3599C63.76 43.6899 58.48 48.9799 53.19 54.2699C53.67 54.7699 54.21 55.3399 54.62 55.7699ZM76.33 34.3999C74.51 32.5499 72.69 30.7099 70.92 28.8999C69.71 30.0899 68.5 31.2799 67.37 32.3899C69.21 34.2299 71.04 36.0699 72.89 37.9199C73.99 36.7899 75.16 35.5999 76.33 34.3999ZM77.26 18.5899C77.26 17.3299 77.27 16.2199 77.26 15.1099C77.23 11.9499 75.21 10.2899 72.03 10.8099C72.03 13.3899 72.03 15.9799 72.03 18.5799C73.79 18.5899 75.46 18.5899 77.26 18.5899ZM77.18 31.3099C77.18 27.7599 77.18 24.5899 77.18 21.4299C75.4 21.4299 73.7 21.4299 71.94 21.4299C71.94 22.8099 71.91 24.0899 71.96 25.3799C71.97 25.7299 72.15 26.1599 72.4 26.4199C73.89 27.9799 75.43 29.5199 77.18 31.3099ZM52.2 57.4599C50.72 55.9599 49.28 54.4899 47.85 53.0299C46.68 55.3199 46.68 55.3199 47.46 56.1299C49.76 58.5399 49.76 58.5399 52.2 57.4599ZM44.97 60.2599C45.76 59.9599 46.31 59.7499 47.03 59.4799C46.53 59.0099 46.2 58.6899 45.77 58.2799C45.51 58.9299 45.3 59.4399 44.97 60.2599Z" fill="white"/>
<path d="M20.02 18.6499C23.35 18.6499 26.67 18.6399 30 18.6499C31.58 18.6499 31.98 19.0399 31.98 20.5899C31.99 24.6199 31.99 28.6599 31.98 32.6899C31.98 34.2399 31.58 34.6299 30 34.6299C23.31 34.6399 16.61 34.6399 9.92 34.6299C8.42 34.6299 8.01 34.2299 8.01 32.7499C8 28.6699 8 24.5899 8.01 20.5099C8.01 19.0399 8.42 18.6399 9.92 18.6399C13.29 18.6499 16.66 18.6499 20.02 18.6499ZM29.25 21.4199C23.01 21.4199 16.88 21.4199 10.78 21.4199C10.78 24.9799 10.78 28.4599 10.78 31.9099C16.99 31.9099 23.09 31.9099 29.25 31.9099C29.25 28.3999 29.25 24.9599 29.25 21.4199Z" fill="white"/>
<path d="M13.43 40.02C24.95 40.02 36.39 40.02 47.9 40.02C47.9 40.85 47.9 41.64 47.9 42.53C36.46 42.53 25 42.53 13.43 42.53C13.43 41.76 13.43 40.95 13.43 40.02Z" fill="white"/>
<path d="M42.58 45.3799C42.58 46.2599 42.58 47.0399 42.58 47.8899C31.08 47.8899 19.65 47.8899 8.10999 47.8899C8.10999 47.0999 8.10999 46.2899 8.10999 45.3799C19.54 45.3799 31.01 45.3799 42.58 45.3799Z" fill="white"/>
<path d="M8.06 53.1999C8.06 52.3199 8.06 51.5399 8.06 50.6899C17.78 50.6899 27.44 50.6899 37.2 50.6899C37.2 51.4799 37.2 52.2899 37.2 53.1999C27.55 53.1999 17.86 53.1999 8.06 53.1999Z" fill="white"/>
<path d="M8.06 58.53C8.06 57.65 8.06 56.87 8.06 56.02C17.78 56.02 27.44 56.02 37.2 56.02C37.2 56.81 37.2 57.62 37.2 58.53C27.55 58.53 17.86 58.53 8.06 58.53Z" fill="white"/>
<path d="M8.06 63.8601C8.06 62.9801 8.06 62.2001 8.06 61.3501C17.78 61.3501 27.44 61.3501 37.2 61.3501C37.2 62.1401 37.2 62.9501 37.2 63.8601C27.55 63.8601 17.86 63.8601 8.06 63.8601Z" fill="white"/>
<path d="M37.36 27.8899C37.36 27.0199 37.36 26.2299 37.36 25.3799C45.33 25.3799 53.25 25.3799 61.23 25.3799C61.23 26.2299 61.23 27.0099 61.23 27.8899C53.3 27.8899 45.39 27.8899 37.36 27.8899Z" fill="white"/>
<path d="M63.88 22.6001C56.8 22.6001 49.81 22.6001 42.72 22.6001C42.72 21.7701 42.72 20.9501 42.72 20.0601C49.76 20.0601 56.78 20.0601 63.88 20.0601C63.88 20.8901 63.88 21.6701 63.88 22.6001Z" fill="white"/>
<path d="M55.9 30.73C55.9 31.61 55.9 32.39 55.9 33.24C49.73 33.24 43.63 33.24 37.41 33.24C37.41 32.45 37.41 31.64 37.41 30.73C43.51 30.73 49.65 30.73 55.9 30.73Z" fill="white"/>
<path d="M39.93 20.0901C39.93 20.9401 39.93 21.7201 39.93 22.5801C39.07 22.5801 38.26 22.5801 37.37 22.5801C37.37 21.7601 37.37 20.9801 37.37 20.0901C38.16 20.0901 38.98 20.0901 39.93 20.0901Z" fill="white"/>
<path d="M8.04999 42.5701C8.04999 41.7101 8.04999 40.9301 8.04999 40.0601C8.87999 40.0601 9.68999 40.0601 10.59 40.0601C10.59 40.8801 10.59 41.6901 10.59 42.5701C9.76999 42.5701 8.98999 42.5701 8.04999 42.5701Z" fill="white"/>
<path d="M10.6 7.93991C9.75998 7.93991 8.96998 7.93991 8.09998 7.93991C8.09998 7.11991 8.09998 6.30991 8.09998 5.40991C8.89998 5.40991 9.71998 5.40991 10.6 5.40991C10.6 6.21991 10.6 7.00991 10.6 7.93991Z" fill="white"/>
<path d="M13.39 7.92993C13.39 7.08993 13.39 6.29993 13.39 5.42993C14.21 5.42993 15.02 5.42993 15.92 5.42993C15.92 6.22993 15.92 7.04993 15.92 7.92993C15.11 7.92993 14.33 7.92993 13.39 7.92993Z" fill="white"/>
<path d="M21.24 7.97993C20.37 7.97993 19.62 7.97993 18.76 7.97993C18.76 7.14993 18.76 6.33993 18.76 5.42993C19.53 5.42993 20.34 5.42993 21.24 5.42993C21.24 6.22993 21.24 7.03993 21.24 7.97993Z" fill="white"/>
</g>
<defs>
<clipPath id="clip0_2520_41">
<rect width="79.95" height="80" fill="white"/>
</clipPath>
</defs>
</svg>
