<svg width="24" height="18" viewBox="0 0 24 18" fill="none" xmlns="http://www.w3.org/2000/svg">
<path fill-rule="evenodd" clip-rule="evenodd" d="M21.7982 0C22.5173 0 23.1559 0.335517 23.5577 0.854479L11.8876 10.3802L0.321426 1.02746C0.708144 0.411282 1.40564 0 2.20183 0H21.7982ZM0 15.8571V2.71775L8.29903 9.42857L0.0171078 16.1256C0.00581906 16.0376 0 15.948 0 15.8571ZM0.758997 17.4759C1.14542 17.8024 1.64991 18 2.20183 18H21.7982C22.2725 18 22.7119 17.854 23.0713 17.6056L14.2526 10.4074L12.6668 11.7019C12.2183 12.068 11.5649 12.0694 11.1147 11.7054L9.50491 10.4037L0.758997 17.4759ZM15.4519 9.42857L23.9398 16.3568C23.9792 16.1965 24 16.0292 24 15.8571V2.45122L15.4519 9.42857Z" fill="white"/>
</svg>
