<svg width="26" height="25" viewBox="0 0 26 25" fill="none" xmlns="http://www.w3.org/2000/svg">
<path d="M7.91641 9.05282C9.48853 13.3416 11.1161 15.0527 15.2566 16.8754L13.4622 19.3954C8.70763 17.1191 6.33948 13.2821 5.22415 10.2877L7.91641 9.05282Z" fill="white"/>
<path d="M9.23525 3.13172C10.0759 3.12843 10.7151 3.82794 10.6578 4.62002C10.5676 5.86649 10.6636 6.7658 10.9221 7.88053C11.0642 8.49285 10.7429 9.11475 10.2324 9.51532C9.54423 10.0552 9.01852 10.7432 8.60069 11.3354C8.02157 12.1562 6.02858 12.0973 5.58782 11.203C4.68201 9.36527 4.06815 5.97948 5.39089 3.69198C5.59867 3.33266 6.01701 3.14431 6.45051 3.14261L9.23525 3.13172Z" fill="white"/>
<path d="M21.9961 16.7314C22.1007 15.9436 21.4422 15.2602 20.6027 15.2187C19.2816 15.1533 18.3478 14.9552 17.2071 14.5787C16.5805 14.372 15.8882 14.5984 15.4057 15.0289C14.7554 15.6091 13.969 16.0192 13.2963 16.3398C12.3638 16.784 12.1861 18.6596 13.0731 19.1804C14.8959 20.2506 18.3812 21.2334 20.9448 20.2683C21.3475 20.1167 21.5958 19.7471 21.6498 19.3409L21.9961 16.7314Z" fill="white"/>
</svg>
