<svg width="76" height="80" viewBox="0 0 76 80" fill="none" xmlns="http://www.w3.org/2000/svg">
<g clip-path="url(#clip0_2520_43)">
<path d="M22.11 17.37C19.02 11.88 19.22 7.62004 22.61 4.78004C26.22 1.76004 30.57 2.12004 35.13 5.83004C38.35 -0.969956 46.09 -0.979956 50.18 1.59004C54.02 4.00004 56.67 11.56 51.1 17.38C53.11 17.38 54.97 17.38 56.83 17.38C58.75 17.38 58.87 17.51 58.87 19.46C58.87 21.25 58.87 23.04 58.87 25.06C59.39 24.84 59.78 24.68 60.16 24.5C64.57 22.34 68.97 20.17 73.38 18.02C75.02 17.22 75.61 17.57 75.61 19.36C75.62 27.4 75.62 35.44 75.61 43.49C75.61 45.23 75.02 45.59 73.46 44.83C69.05 42.67 64.65 40.5 60.25 38.34C59.85 38.14 59.44 37.98 58.87 37.72C58.87 39.78 58.87 41.68 58.87 43.58C58.87 45.2 58.63 45.45 56.97 45.45C48.59 45.46 40.22 45.45 31.84 45.45C31.34 45.45 30.85 45.45 30.16 45.45C30.16 46.27 30.18 47.01 30.16 47.74C30.09 50.28 30.29 52.86 29.86 55.34C28.73 61.87 22.62 64.98 16.99 64.39C10.53 63.72 6.36003 59.07 6.33003 52.56C6.31003 48.27 6.32003 43.98 6.33003 39.68C6.35003 33.66 9.42003 29.61 15.24 28.01C15.93 27.82 16.04 27.47 16.04 26.86C16.02 24.28 16.02 21.69 16.03 19.11C16.04 17.71 16.32 17.41 17.71 17.39C19.15 17.35 20.59 17.37 22.11 17.37ZM56.56 19.77C43.73 19.77 31.05 19.77 18.4 19.77C18.4 22.44 18.4 25 18.4 27.56C19.27 27.67 20.07 27.68 20.83 27.86C26.85 29.29 30.02 33.25 30.14 39.44C30.16 40.63 30.14 41.83 30.14 43.08C39.04 43.08 47.77 43.08 56.56 43.08C56.56 35.27 56.56 27.54 56.56 19.77ZM8.64003 52.28C8.61003 52.66 8.57003 52.9 8.58003 53.14C8.91003 58.53 12.85 62.21 18.26 62.21C23.9 62.21 27.84 58.3 27.93 52.49C28 48.16 27.98 43.82 27.92 39.49C27.9 38.3 27.71 37.06 27.33 35.94C25.47 30.54 18.81 28.21 13.42 31C10.2 32.67 8.14003 36.45 8.74003 39.71C11.17 39.71 13.62 39.72 16.08 39.71C16.88 39.71 17.55 39.91 17.53 40.84C17.52 41.77 16.82 41.95 16.04 41.95C14.87 41.94 13.71 41.95 12.54 41.95C11.23 41.95 9.92003 41.95 8.63003 41.95C8.63003 43.03 8.63003 43.89 8.63003 44.89C9.15003 44.89 9.59003 44.89 10.04 44.89C12.08 44.89 14.12 44.89 16.17 44.9C16.92 44.9 17.53 45.15 17.54 46C17.55 46.85 16.93 47.14 16.2 47.17C14.91 47.21 13.62 47.18 12.32 47.18C11.09 47.18 9.86003 47.18 8.64003 47.18C8.64003 48.24 8.64003 49.09 8.64003 50.06C10.43 50.06 12.13 50.06 13.83 50.06C14.7 50.06 15.61 49.95 16.44 50.13C16.87 50.22 17.18 50.84 17.54 51.22C17.16 51.57 16.82 52 16.37 52.24C16.08 52.4 15.64 52.28 15.26 52.28C13.08 52.28 10.88 52.28 8.64003 52.28ZM44.27 17.23C48.84 17.26 52.04 14.21 52.07 9.82004C52.09 5.41004 48.99 2.26004 44.57 2.23004C40.04 2.19004 36.83 5.21004 36.79 9.52004C36.75 14.06 39.8 17.2 44.27 17.23ZM73.32 20.74C73.07 20.74 72.98 20.71 72.91 20.74C68.43 22.93 63.95 25.11 59.49 27.35C59.16 27.51 58.9 28.12 58.88 28.53C58.82 30.4 58.89 32.28 58.83 34.15C58.81 34.89 59.08 35.26 59.73 35.57C62.06 36.67 64.36 37.83 66.68 38.96C67.21 39.22 67.75 39.47 68.44 39.8C68.44 38.52 68.44 37.48 68.44 36.44C68.44 34.07 68.45 31.69 68.44 29.32C68.44 28.51 68.67 27.84 69.56 27.84C70.47 27.84 70.68 28.55 70.69 29.33C70.69 29.66 70.69 30 70.69 30.33C70.69 33.58 70.66 36.83 70.72 40.07C70.73 40.49 71.09 41.01 71.44 41.28C71.95 41.67 72.6 41.87 73.3 42.2C73.32 34.97 73.32 27.87 73.32 20.74ZM28.22 17.24C31.88 17.25 34.44 14.8 34.5 11.22C34.56 7.66004 31.88 5.01004 28.24 5.03004C24.6 5.05004 22.07 7.55004 22.06 11.14C22.06 14.75 24.57 17.23 28.22 17.24ZM35.91 15.13C35.39 15.85 34.9 16.52 34.36 17.26C35.54 17.26 36.57 17.26 37.73 17.26C37.09 16.51 36.56 15.88 35.91 15.13Z" fill="#5134FF"/>
<path d="M57.11 80C52.28 80 47.44 80 42.61 80C39.89 80 38.55 78.66 38.55 75.93C38.55 69.55 38.54 63.18 38.55 56.8C38.55 54.12 39.95 52.75 42.65 52.74C44.19 52.73 45.74 52.71 47.28 52.75C48.38 52.78 48.86 52.36 48.88 51.22C48.94 48.39 50.18 47.22 52.98 47.22C55.86 47.22 58.73 47.21 61.61 47.22C63.92 47.23 65.26 48.55 65.32 50.83C65.37 52.55 65.55 52.73 67.3 52.73C68.84 52.73 70.38 52.71 71.93 52.74C74.19 52.78 75.6 54.16 75.6 56.41C75.62 63.08 75.62 69.75 75.6 76.42C75.59 78.64 74.23 79.98 71.99 79.99C67.03 80.01 62.07 80 57.11 80ZM57.11 77.73C61.99 77.73 66.86 77.71 71.74 77.74C72.91 77.75 73.4 77.27 73.39 76.1C73.37 69.6 73.37 63.1 73.39 56.59C73.39 55.47 72.87 55 71.79 55C70.16 55.01 68.54 55.01 66.91 55C64.41 54.98 63.09 53.67 63.04 51.14C63.01 49.73 62.74 49.44 61.36 49.43C58.65 49.42 55.94 49.42 53.23 49.43C51.39 49.43 51.22 49.6 51.11 51.51C50.99 53.68 49.69 54.97 47.53 55C45.86 55.03 44.2 54.99 42.53 55.01C41.19 55.02 40.82 55.39 40.82 56.72C40.81 63.14 40.81 69.56 40.82 75.98C40.82 77.41 41.14 77.72 42.6 77.72C47.44 77.73 52.28 77.73 57.11 77.73Z" fill="#5134FF"/>
<path d="M19.38 71.3C19.38 73.44 19.38 75.48 19.38 77.73C20.76 77.73 22.11 77.73 23.46 77.73C23.88 77.73 24.37 77.59 24.69 77.77C25.16 78.03 25.5 78.52 25.9 78.91C25.51 79.27 25.13 79.94 24.74 79.94C20.41 80.01 16.07 80.01 11.74 79.94C11.34 79.93 10.96 79.26 10.57 78.89C10.99 78.5 11.38 77.82 11.82 77.79C13.51 77.66 15.22 77.74 17.02 77.74C17.02 75.55 17.02 73.45 17.02 71.38C15.39 70.99 13.75 70.71 12.19 70.19C5.12001 67.81 0.0700071 60.86 7.07898e-06 53.51C-0.00999292 52.73 -0.0399929 51.88 1.01001 51.84C2.09001 51.8 2.18001 52.65 2.23001 53.5C2.65001 61.6 8.45001 67.88 16.47 68.91C23.99 69.88 31.28 65.07 33.62 57.52C34.03 56.19 34.13 54.75 34.27 53.35C34.36 52.5 34.56 51.8 35.53 51.85C36.45 51.89 36.56 52.62 36.57 53.4C36.61 61.23 30.55 68.83 22.79 70.67C21.69 70.92 20.58 71.08 19.38 71.3Z" fill="#5134FF"/>
<path d="M36.19 31.44C36.19 29.61 36.17 27.77 36.2 25.94C36.23 24.41 36.96 23.99 38.29 24.75C41.43 26.55 44.57 28.36 47.7 30.18C48.98 30.93 48.96 31.85 47.66 32.61C44.53 34.43 41.4 36.24 38.25 38.03C36.91 38.79 36.23 38.39 36.2 36.81C36.17 35.02 36.19 33.23 36.19 31.44ZM38.49 35.3C40.84 33.94 42.98 32.7 45.27 31.38C42.93 30.03 40.79 28.8 38.49 27.47C38.49 30.16 38.49 32.61 38.49 35.3Z" fill="#5134FF"/>
<path d="M57.06 74.7801C51.83 74.7701 48.04 71.0101 48.04 65.8401C48.04 60.6901 51.86 56.9201 57.09 56.9101C62.4 56.9001 66.22 60.7001 66.17 65.9301C66.1 71.1401 62.35 74.7901 57.06 74.7801ZM63.88 65.9001C63.9 61.9001 61.19 59.2001 57.15 59.1801C53.1 59.1601 50.32 61.8601 50.3 65.8101C50.29 69.7901 53.04 72.5201 57.06 72.5401C61.1 72.5601 63.86 69.8701 63.88 65.9001Z" fill="#5134FF"/>
</g>
<defs>
<clipPath id="clip0_2520_43">
<rect width="75.61" height="80" fill="white"/>
</clipPath>
</defs>
</svg>
