<svg width="79" height="80" viewBox="0 0 79 80" fill="none" xmlns="http://www.w3.org/2000/svg">
<g clip-path="url(#clip0_2520_42)">
<path d="M20.56 71.83C21.3 73.2 21.87 74.28 22.47 75.34C22.87 76.04 22.77 76.64 22.1 77.05C21.38 77.49 20.82 77.13 20.46 76.49C19.16 74.14 17.86 71.8 16.6 69.42C16.04 68.36 16.5 67.54 17.69 67.54C20.42 67.55 23.15 67.62 25.88 67.78C26.27 67.8 26.97 68.52 26.92 68.8C26.84 69.26 26.3 69.91 25.87 69.99C24.89 70.17 23.86 70.05 22.91 70.05C25.98 73.18 40.88 74.4 46.19 71.99C45.46 69.78 44.46 67.64 44.1 65.39C43.74 63.13 44.02 60.77 44.02 58.46C41.49 59.02 41.95 58.65 41.92 60.99C41.89 64.02 41.91 64.02 38.86 64.02C37.14 64.02 35.42 64 33.7 64.02C32.65 64.03 32.03 63.54 32.21 62.51C32.66 59.88 31.61 58.77 29.07 57.79C26.68 56.87 25.13 56.65 23.63 58.88C23.03 59.77 22.23 59.78 21.42 58.95C19.89 57.37 18.32 55.82 16.74 54.28C15.89 53.45 15.94 52.72 16.78 51.92C17.54 51.19 18.69 50.5 18.86 49.63C19.02 48.79 18.13 47.76 17.75 46.79C17.33 45.73 16.97 44.64 16.54 43.42C15.42 43.42 14.24 43.41 13.07 43.42C12.08 43.44 11.61 42.98 11.62 41.98C11.63 39.73 11.64 37.49 11.62 35.24C11.61 34.19 12.14 33.51 13.12 33.69C15.9 34.21 17.29 33.08 17.8 30.39C17.98 29.44 18.65 28.57 19.25 27.36C18.46 26.67 17.6 25.92 16.75 25.16C15.93 24.43 15.91 23.69 16.71 22.91C18.28 21.37 19.83 19.8 21.38 18.24C22.16 17.45 22.89 17.48 23.65 18.27C24.4 19.07 25.18 19.85 25.87 20.56C27.86 19.78 29.74 19.07 31.58 18.28C31.87 18.16 32.13 17.66 32.16 17.31C32.24 16.39 32.2 15.46 32.19 14.54C32.18 13.69 32.55 13.18 33.43 13.17C35.85 13.15 38.28 13.16 40.7 13.17C41.51 13.18 42.02 13.67 41.87 14.44C41.29 17.37 42.55 18.85 45.38 19.39C46.29 19.56 47.12 20.2 48.22 20.73C48.94 19.94 49.69 19.08 50.47 18.25C51.22 17.44 51.96 17.47 52.73 18.26C54.27 19.83 55.83 21.39 57.4 22.93C58.15 23.66 58.16 24.37 57.43 25.1C56.62 25.9 55.8 26.7 55.04 27.45C55.91 29.54 56.73 31.51 57.63 33.65C58.56 33.65 59.65 33.66 60.75 33.65C61.93 33.63 62.54 34.1 62.51 35.38C62.46 37.49 62.46 39.61 62.51 41.72C62.54 42.99 61.99 43.47 60.76 43.41C59.71 43.35 58.65 43.4 57.5 43.4C57.3 44.02 57.1 44.63 56.84 45.44C61.69 44.44 66.2 44.97 70.68 47.66C71.03 45.55 71.49 43.61 71.64 41.64C72.29 33.17 70.25 25.41 65.34 18.44C64.86 17.76 64.37 17.03 65.27 16.38C66.13 15.75 66.71 16.32 67.21 17.04C73.75 26.5 75.6 36.82 72.87 47.96C72.67 48.76 72.8 49.23 73.38 49.8C83.02 59.25 79.3 75.12 66.4 79.12C59.8 81.17 53.88 79.56 48.89 74.75C48.32 74.2 47.86 73.99 47.05 74.21C38.36 76.59 29.9 75.93 21.67 72.27C21.4 72.18 21.16 72.08 20.56 71.83ZM22.67 56.83C23.42 55.99 24.13 55.21 24.82 54.42C25.42 53.75 26.02 53.8 26.82 54.16C28.93 55.13 31.06 56.06 33.24 56.83C34.11 57.14 34.48 57.55 34.48 58.4C34.48 59.45 34.48 60.5 34.48 61.58C36.27 61.58 37.9 61.58 39.61 61.58C39.61 61.16 39.61 60.86 39.61 60.55C39.64 57.32 39.64 57.31 42.71 56.35C44.26 55.87 45.46 55.15 46.26 53.55C47.53 50.98 49.55 48.91 52.1 47.61C53.84 46.72 54.54 45.36 54.97 43.66C55.07 43.28 55.18 42.89 55.24 42.5C55.4 41.49 55.99 41.08 56.99 41.1C58.03 41.13 59.06 41.11 60.11 41.11C60.11 39.29 60.11 37.69 60.11 36.01C58.95 36.01 57.89 35.98 56.84 36.02C55.94 36.05 55.55 35.6 55.25 34.78C54.45 32.65 53.6 30.54 52.65 28.48C52.23 27.58 52.22 26.91 52.96 26.25C53.71 25.58 54.46 24.91 55.12 24.32C53.82 22.94 52.71 21.77 51.38 20.35C50.71 21.12 50.07 21.83 49.46 22.57C48.75 23.42 48.06 23.41 47.04 22.92C45.04 21.94 42.95 21.15 40.86 20.38C40.05 20.08 39.57 19.75 39.6 18.82C39.64 17.74 39.61 16.66 39.61 15.58C37.77 15.58 36.13 15.58 34.42 15.58C34.42 16.81 34.52 17.92 34.37 19C34.3 19.48 33.82 20.09 33.37 20.29C31.22 21.26 28.99 22.05 26.85 23.02C25.99 23.41 25.36 23.43 24.75 22.71C24.07 21.92 23.4 21.12 22.86 20.5C21.39 21.9 20.23 23.01 18.89 24.29C19.6 24.93 20.31 25.58 21.04 26.21C21.84 26.9 21.83 27.59 21.39 28.54C20.44 30.55 19.6 32.62 18.84 34.72C18.52 35.6 18.14 36.07 17.18 36.04C16.14 36 15.1 36.03 14.05 36.03C14.05 37.82 14.05 39.42 14.05 41.14C15.16 41.14 16.17 41.15 17.18 41.14C18.12 41.12 18.53 41.58 18.85 42.47C19.61 44.57 20.45 46.64 21.41 48.64C21.87 49.61 21.86 50.28 21.06 50.96C20.3 51.61 19.55 52.26 18.77 52.93C20.16 54.34 21.28 55.45 22.67 56.83ZM61.26 77.64C69.68 77.64 76.44 70.87 76.43 62.44C76.42 54.01 69.65 47.27 61.21 47.3C52.87 47.32 46.12 54.07 46.08 62.43C46.04 70.79 52.87 77.64 61.26 77.64Z" fill="#5134FF"/>
<path d="M53.38 5.09991C52.82 4.07991 52.27 3.04991 51.71 2.02991C51.34 1.34991 51.18 0.619909 51.96 0.179909C52.77 -0.280091 53.35 0.149909 53.77 0.929909C54.96 3.13991 56.19 5.31991 57.38 7.52991C58.1 8.87991 57.64 9.61991 56.09 9.60991C53.62 9.58991 51.16 9.53991 48.69 9.48991C47.9 9.46991 47.1 9.35991 47.08 8.34991C47.07 7.25991 47.86 7.12991 48.74 7.14991C49.56 7.16991 50.38 7.14991 51.22 7.04991C48.39 5.57991 45.38 4.73991 42.27 4.27991C23.6 1.49991 6.22 13.9199 2.91 32.4699C1.23 41.8799 3.2 50.5599 8.56 58.4699C8.71 58.6899 8.98 58.8999 8.98 59.1199C8.98 59.7099 8.87 60.2899 8.8 60.8799C8.23 60.7299 7.36 60.7599 7.14 60.3899C5.56 57.7599 3.81 55.1699 2.68 52.3399C-5.58 31.6899 5.96 8.63991 27.43 2.83991C35.78 0.579909 43.99 1.26991 51.94 4.70991C52.34 4.87991 52.75 5.05991 53.15 5.21991C53.18 5.22991 53.23 5.17991 53.38 5.09991Z" fill="#5134FF"/>
<path d="M48.46 38.5999C48.46 44.9499 43.42 50.0099 37.08 50.0099C30.68 50.0199 25.57 44.9299 25.58 38.5599C25.59 32.2699 30.69 27.1499 36.99 27.0999C43.31 27.0399 48.46 32.2099 48.46 38.5999ZM36.99 47.6899C42.07 47.6999 46.19 43.6499 46.21 38.6099C46.23 33.6099 42.04 29.4399 37.03 29.4499C32.04 29.4599 27.98 33.4899 27.91 38.5099C27.83 43.5699 31.9 47.6799 36.99 47.6899Z" fill="#5134FF"/>
<path d="M57.28 66.67C60.89 63.05 64.33 59.59 67.77 56.13C68.08 55.82 68.35 55.37 68.72 55.24C69.19 55.08 70.05 54.99 70.19 55.21C70.45 55.61 70.35 56.28 70.29 56.83C70.27 57.04 69.95 57.22 69.77 57.4C65.97 61.2 62.18 65 58.38 68.79C57.08 70.09 56.52 70.01 55.58 68.4C54.48 66.5 53.4 64.58 52.29 62.69C51.85 61.94 51.54 61.16 52.48 60.65C53.41 60.14 53.91 60.83 54.33 61.58C55.26 63.22 56.22 64.84 57.28 66.67Z" fill="#5134FF"/>
</g>
<defs>
<clipPath id="clip0_2520_42">
<rect width="78.79" height="80" fill="white"/>
</clipPath>
</defs>
</svg>
