<svg width="80" height="80" viewBox="0 0 80 80" fill="none" xmlns="http://www.w3.org/2000/svg">
<g clip-path="url(#clip0_2520_46)">
<path d="M45.14 34.1501C48.62 32.5101 52.28 31.7001 56.12 31.7701C67.01 31.9601 76.62 39.9201 78.82 50.6101C81.57 63.9501 72.88 76.7501 59.51 79.0801C47.12 81.2401 34.82 72.8801 32.29 60.5801C30.85 53.5501 32.28 47.1401 36.47 41.3201C36.78 40.8901 36.99 40.3001 37 39.7801C37.05 37.2201 37.04 34.6701 37.02 32.1101C37.01 30.7201 36.61 30.4001 35.26 30.5401C31.62 30.9101 28.37 32.2101 25.44 34.3901C23.15 36.1001 20.81 37.7601 18.5 39.4501C18.01 39.8101 17.54 40.2201 17.12 40.6601C15.55 42.2501 13.28 42.8201 11.3 41.9901C9.2 41.1001 7.97 39.4801 7.96 37.1901C7.92 27.4101 7.92 17.6201 7.96 7.84005C7.97 5.55005 9.22 3.93005 11.31 3.05005C13.34 2.20005 15.4 3.05005 17.24 4.45005C22.17 8.21005 26.68 12.7401 33.06 14.1501C33.92 14.3401 34.8 14.4901 35.67 14.5101C36.06 14.5201 36.56 14.2401 36.84 13.9301C38.45 12.1401 40.67 11.4801 42.81 12.2401C44.89 12.9801 46.27 14.9701 46.28 17.3701C46.3 20.8101 46.32 24.2501 46.26 27.6801C46.25 28.4901 45.95 29.3001 45.73 30.1001C45.39 31.3701 45.01 32.6201 44.65 33.8801C44.82 33.9601 44.98 34.0601 45.14 34.1501ZM76.7 55.5501C76.71 43.9501 67.24 34.4501 55.63 34.42C43.94 34.39 34.42 43.8401 34.39 55.5201C34.37 67.2001 43.86 76.7301 55.52 76.7301C67.21 76.7201 76.69 67.2401 76.7 55.5501ZM35.66 17.2101C32.4 16.9201 29.27 16.1901 26.51 14.4701C23.82 12.7901 21.27 10.9001 18.6 9.06005C18.6 18.1101 18.6 26.9901 18.6 36.1201C23.86 32.1901 28.79 28.0101 35.66 27.9001C35.66 24.2501 35.66 20.7801 35.66 17.2101ZM10.59 22.4401C10.59 27.1101 10.59 31.7801 10.59 36.4601C10.59 38.4601 11.63 39.7101 13.26 39.6901C14.84 39.6701 15.87 38.4501 15.87 36.5301C15.88 27.1901 15.88 17.8401 15.87 8.50005C15.87 6.57005 14.85 5.36005 13.26 5.34005C11.62 5.32005 10.59 6.54005 10.59 8.56005C10.59 13.1801 10.59 17.8101 10.59 22.4401ZM38.36 22.4501C38.36 24.1201 38.34 25.8001 38.36 27.4701C38.38 29.2501 39.49 30.4501 41.04 30.4301C42.55 30.4001 43.62 29.2401 43.63 27.5201C43.65 24.1701 43.65 20.8201 43.63 17.4701C43.62 15.7601 42.53 14.6001 41.02 14.5801C39.5 14.5701 38.39 15.7201 38.36 17.4201C38.34 19.1001 38.36 20.7801 38.36 22.4501ZM39.75 33.0501C39.75 34.59 39.75 36.0601 39.75 37.5601C42.39 36.0001 42.57 35.66 42.2 33.0501C41.42 33.0501 40.64 33.0501 39.75 33.0501Z" fill="#5134FF"/>
<path d="M19.9 76.3601C21.36 74.8101 22.64 73.4301 23.96 72.0801C24.24 71.7901 24.68 71.47 25.04 71.46C28.11 71.41 31.19 71.43 34.33 71.43C34.33 72.32 34.33 73.1001 34.33 74.0801C32.35 74.0801 30.33 74.2201 28.34 74.0401C26.4 73.8701 25.01 74.48 23.77 75.96C22.62 77.34 21.26 78.5401 19.81 80C18.1 78.26 16.49 76.53 14.77 74.92C14.29 74.47 13.5 74.15 12.84 74.13C10.02 74.04 7.2 74.1 4.38 74.09C1.62 74.08 0.01 72.4901 0 69.7601C0 62.9201 0 56.0901 0.01 49.2701C0.02 46.7201 1.59 45.0101 4.04 45.0001C12.63 44.9701 21.22 44.9901 29.81 44.9901C29.98 44.9901 30.14 45.0301 30.36 45.0701C30.36 45.9001 30.36 46.68 30.36 47.64C29.89 47.64 29.43 47.64 28.96 47.64C20.94 47.64 12.92 47.64 4.9 47.64C2.96 47.64 2.65 47.9401 2.65 49.8201C2.65 56.3001 2.65 62.7701 2.65 69.25C2.65 71.14 2.95 71.4301 4.89 71.4401C7.93 71.4401 10.97 71.4001 14.01 71.4701C14.63 71.4901 15.37 71.79 15.83 72.21C17.16 73.43 18.37 74.7801 19.9 76.3601Z" fill="#5134FF"/>
<path d="M19.84 55.43C19.84 54.64 19.84 53.86 19.84 53C22.95 53 25.96 53 29.04 53C29.04 58.23 29.04 63.41 29.04 68.69C26.05 68.69 23.03 68.69 19.9 68.69C19.86 68.35 19.82 67.95 19.77 67.51C16.27 69.71 12.51 68.67 8.89 68.66C7.36 68.66 6.26 67.46 5.85 65.92C5.47 64.48 5.25 63 4.91 61.54C4.06 57.94 5.1 56.24 8.75 55.42C8.57 53.78 8.91 52.29 10.27 51.19C12.2 49.63 15.01 50.11 16.34 52.27C16.71 52.87 17.05 53.49 17.29 54.15C17.72 55.3 18.38 55.91 19.84 55.43ZM12.28 58.22C11 58.22 9.94 58.2 8.89 58.23C7.59 58.26 7.1 58.81 7.32 60.06C7.6 61.66 7.92 63.26 8.27 64.85C8.45 65.66 8.94 66.16 9.85 66.15C11.97 66.14 14.13 66.43 16.18 66.04C17.49 65.79 19.28 64.82 19.68 63.73C20.28 62.12 19.83 60.12 19.83 58.22C19.05 58.22 18.43 58.16 17.83 58.23C16.78 58.35 16.12 58.02 15.72 56.97C15.32 55.9 14.85 54.82 14.18 53.92C13.82 53.44 12.94 53.02 12.38 53.1C11.49 53.23 11.23 54.07 11.46 54.97C11.73 55.98 11.98 57 12.28 58.22ZM26.39 55.65C25.02 55.65 23.81 55.65 22.57 55.65C22.57 59.17 22.57 62.61 22.57 66.05C23.9 66.05 25.14 66.05 26.39 66.05C26.39 62.53 26.39 59.12 26.39 55.65Z" fill="#5134FF"/>
<path d="M70.75 34.03C70.33 33.39 69.91 32.74 69.41 31.98C74.41 28.39 77.02 23.58 76.64 17.43C76.36 12.86 74.32 9.09999 70.76 6.18999C63.95 0.609987 52.38 1.33999 46.67 11.18C45.95 10.8 45.23 10.42 44.51 10.04C47.09 3.82999 55.34 -0.710013 62.48 0.0999865C70.96 1.05999 77.6 7.06999 79.07 15.13C80.42 22.54 76.7 31.06 70.75 34.03Z" fill="#5134FF"/>
<path d="M52.9 18.47C52.9 16.31 52.88 14.16 52.91 12C52.94 9.47002 55.05 8.27002 57.18 9.60002C60.65 11.76 64.1 13.95 67.53 16.19C69.5 17.48 69.49 19.63 67.51 20.92C64.08 23.15 60.64 25.35 57.16 27.51C55.03 28.83 52.94 27.61 52.9 25.08C52.88 22.87 52.9 20.67 52.9 18.47ZM55.62 25.35C59.25 23.03 62.7 20.83 66.29 18.54C62.64 16.22 59.2 14.03 55.62 11.75C55.62 16.33 55.62 20.72 55.62 25.35Z" fill="#5134FF"/>
<path d="M0.689999 3.44999C1.15 2.98999 1.7 2.43999 2.28 1.85999C3.51 3.12999 4.74 4.41999 5.97 5.68999C5.47 6.14999 4.88 6.69999 4.32 7.20999C3.23 6.06999 1.97 4.76999 0.689999 3.44999Z" fill="#5134FF"/>
<path d="M2.07 43.09C1.62 42.64 1.04 42.06 0.439999 41.45C1.78 40.14 3.06 38.89 4.36 37.61C4.87 38.17 5.41 38.77 5.94 39.35C4.76 40.49 3.45 41.75 2.07 43.09Z" fill="#5134FF"/>
<path d="M5.24 14.66C5.24 15.55 5.24 16.33 5.24 17.17C3.52 17.17 1.86 17.17 0.110001 17.17C0.110001 16.36 0.110001 15.56 0.110001 14.66C1.78 14.66 3.46 14.66 5.24 14.66Z" fill="#5134FF"/>
<path d="M5.25 27.86C5.25 28.71 5.25 29.49 5.25 30.36C3.55 30.36 1.86 30.36 0.0900002 30.36C0.0900002 29.55 0.0900002 28.74 0.0900002 27.86C1.78 27.86 3.44 27.86 5.25 27.86Z" fill="#5134FF"/>
<path d="M45.34 54.2501C44.65 52.1801 44 50.2301 43.3 48.1301C44.58 47.7001 45.79 47.3301 46.95 46.8701C47.4 46.6901 47.92 46.3801 48.15 45.9801C49.2 44.1601 50.73 43.0101 52.85 42.4501C52.85 40.7301 52.85 38.9801 52.85 37.0601C54.35 37.0601 55.74 37.0401 57.13 37.0801C57.39 37.0901 57.69 37.3201 57.89 37.5301C59.3 38.9301 60.77 40.2701 62.07 41.7601C66.5 46.84 67.14 52.59 64.84 58.7801C64.33 60.1401 63.69 61.4501 63.18 62.8001C63.05 63.1401 63.02 63.76 63.23 63.9401C64.71 65.26 64.91 66.95 64.81 68.77C64.77 69.6 64.8 70.43 64.8 71.34C58.61 71.34 52.52 71.34 46.18 71.34C46.3 69.48 45.97 67.46 46.66 65.88C47.36 64.28 47.74 62.8601 47.73 61.1401C47.72 59.3001 48.83 57.8901 50.37 56.8001C50.89 56.4401 51.13 55.6901 51.5 55.1101C50.88 54.8201 50.28 54.3301 49.64 54.2701C48.26 54.1601 46.84 54.2501 45.34 54.2501ZM46.75 49.7901C47.15 51.6001 47.15 51.6001 48.87 51.6001C49.44 51.6001 50.02 51.5701 50.58 51.6101C52.49 51.7401 54.02 53.1501 54.19 55.0201C54.36 56.7701 53.57 58.0401 52.07 58.9501C50.47 59.9201 49.92 61.2601 50.51 62.7001C50.65 63.0401 51.15 63.4501 51.5 63.4601C54.22 63.5201 56.95 63.4901 59.76 63.4901C60 62.6001 60.22 61.76 60.45 60.92C62.04 55.09 60.15 49.3801 55.53 46.0301C53.61 44.6401 51.62 44.9401 50.68 47.1001C50.07 48.5201 49.12 49.0701 47.82 49.4201C47.5 49.5201 47.17 49.6501 46.75 49.7901ZM62.02 68.7201C62.35 66.3801 62.17 66.1501 59.91 66.1501C57.01 66.1501 54.11 66.1501 51.2 66.1501C48.91 66.1501 48.76 66.3201 49.04 68.7201C53.37 68.7201 57.7 68.7201 62.02 68.7201ZM63.38 53.1601C63.84 48.1201 58.91 39.8101 55.55 39.8401C55.55 40.1901 55.59 40.5401 55.54 40.8901C55.33 42.2401 55.81 43.1001 57.01 43.8801C59.5 45.5001 61.25 47.8201 62.4 50.5701C62.74 51.3601 63.01 52.1801 63.38 53.1601Z" fill="#5134FF"/>
<path d="M33.07 18.5401C33.07 19.1501 33.07 19.5501 33.07 19.9401C33.07 20.2901 33.07 20.6401 33.07 20.9801C30.28 21.7201 24.42 20.5001 20.61 18.3601C20.96 17.6501 21.32 16.9301 21.75 16.0601C25.3 17.8801 29.03 18.6901 33.07 18.5401Z" fill="#5134FF"/>
<path d="M51.64 50.21C51.64 49.37 51.64 48.6 51.64 47.73C52.45 47.73 53.25 47.73 54.15 47.73C54.15 48.53 54.15 49.33 54.15 50.21C53.35 50.21 52.57 50.21 51.64 50.21Z" fill="#5134FF"/>
</g>
<defs>
<clipPath id="clip0_2520_46">
<rect width="79.34" height="80" fill="white"/>
</clipPath>
</defs>
</svg>
